# xmcd
#
# Track frame offsets: 
#        150
#        21525
#        34425
#        51150
#        65175
#        81900
#        103312
#        120824
#        138542
#        157892
#        172151
#        190066
#        216747
#        235815
#        250590
#        264915
#        289271
#        306089
#
# Disc length: 4331 seconds
#
# Revision: 0
# Processed by: cddbd v1.5.2PL0 Copyright (c) Steve Scherf et al.
# Submitted via: ExactAudioCopy v1.0b4
#
DISCID=1110e912
DTITLE=Various Artist - St. Louis Blues Society presents 18 In 18
DYEAR=2019
DGENRE=Blues
TTITLE0=Little Dylan - The Dog That Crawled In
TTITLE1=Torrey Casey and The Southside Hustle - Old St. Lou
TTITLE2=Uncle Albert - Telephone
TTITLE3=Al Holliday and East Side Rhythm Band - Sad Old Eyes
TTITLE4=Bob 'Bumblebee' Kamoske - Lie, Lie, Lie
TTITLE5=Aina Cook - Unheard
TTITLE6=TJ Muller and The Gaslight Squares - Gaslight Blues No. 1
TTITLE7=Sharon 'Bear' Foehner - Call The Ancestors On Down
TTITLE8=Saint Boogie Brass Band - Saint Boogie Blues
TTITLE9=Brian Curran and Adam Andrews - Weary Mind Blues
TTITLE10=Ms HY-C and Fresh Start - Memphis, Here I Come
TTITLE11=Lobster - I Don't Need No Policeman
TTITLE12=Lady J Huston and The Jazz Edge Orchestra - Hide-Away
TTITLE13=Walter Greiner - Gabriel's Blues
TTITLE14=Miss Molly Simms - Complicated Broken People
TTITLE15=Chris 'Iron Jaw' Taylor and The Alley Tones Blues Band - I Don'
TTITLE15=t Feel Sorry
TTITLE16=Daniel 'Ghostleg' Hamm - Death At My Door
TTITLE17=Charles Hunt - Poor Man
EXTD=
EXTT0=
EXTT1=
EXTT2=
EXTT3=
EXTT4=
EXTT5=
EXTT6=
EXTT7=
EXTT8=
EXTT9=
EXTT10=
EXTT11=
EXTT12=
EXTT13=
EXTT14=
EXTT15=
EXTT16=
EXTT17=
PLAYORDER=
